<?xml version="1.0" encoding="utf-8"?>
<!-- Generator: Adobe Illustrator 24.0.1, SVG Export Plug-In . SVG Version: 6.00 Build 0)  -->
<svg version="1.1" id="Layer_1" xmlns="http://www.w3.org/2000/svg" xmlns:xlink="http://www.w3.org/1999/xlink" x="0px" y="0px"
	 viewBox="0 0 90 12.14" style="enable-background:new 0 0 90 12.14;" xml:space="preserve">
<style type="text/css">
	.st0{fill:#FFFFFF;}
</style>
<g>
	<path class="st0" d="M30.48,8.39c-0.42,0.97-1.37,1.59-2.43,1.59c-1.46,0-2.65-1.19-2.65-2.65s1.19-2.65,2.65-2.65
		c1.06,0,2.02,0.65,2.43,1.62h2.26c-0.48-2.19-2.45-3.77-4.69-3.77c-2.65,0-4.81,2.16-4.81,4.81s2.16,4.81,4.81,4.81
		c2.21,0,4.13-1.5,4.66-3.65l0.03-0.12h-2.25L30.48,8.39z"/>
	<path class="st0" d="M22.62,7.5c0.03-1.51-0.56-2.83-1.68-3.71c-1.18-0.93-2.76-1.22-4.32-0.81c-2.45,0.65-3.84,3.06-3.24,5.61
		c0.51,2.16,2.26,3.55,4.29,3.55c0.33,0,0.67-0.04,1.01-0.12c0.69-0.16,1.3-0.5,1.86-1.05v0.92h2.08v-0.3c0-0.44,0-0.87,0-1.3
		C22.6,9.33,22.59,8.43,22.62,7.5z M20.35,7.47c0,1.45-1,2.47-2.42,2.47c0,0,0,0,0,0c-0.67,0-1.28-0.24-1.72-0.68
		c-0.45-0.45-0.7-1.09-0.7-1.79s0.25-1.34,0.7-1.8c0.44-0.44,1.05-0.68,1.72-0.68c0,0,0,0,0,0C19.33,5,20.35,6.04,20.35,7.47z"/>
	<rect x="10.14" y="0.21" class="st0" width="2.22" height="11.93"/>
	<path class="st0" d="M41.95,11.61c-0.02-0.02-1.95-1.96-3.57-3.74c-0.28-0.31-0.28-0.31,0.06-0.64c0.44-0.43,3.41-3.74,3.54-3.88
		l0.45-0.5l-1.83,0c-0.61-0.01-0.96,0-1.15,0.21c-0.12,0.13-2.67,2.83-3.12,3.29c-0.25,0.26-0.43,0.5-0.52,0.75v-6.9h-2.22v11.93
		h2.22V8.01c0.09,0.24,0.26,0.48,0.5,0.73c0.39,0.4,0.75,0.8,1.09,1.17c1.17,1.28,2.02,2.21,2.75,2.21c1.34,0,1.58,0,1.58,0
		l0.74,0.01L41.95,11.61z"/>
	<path class="st0" d="M9.28,6.76C9.01,4.37,7.12,2.74,4.69,2.79C3.76,2.8,2.94,3.13,2.2,3.76V0.05H0.09L0.04,0.38
		C0.02,0.45,0.01,0.51,0.01,0.57c0,0.89,0,1.64-0.01,2.34C0,4.57-0.01,5.89,0.03,7.96c0.03,1.4,0.7,2.59,1.91,3.35
		c0.88,0.55,1.79,0.83,2.7,0.83c0.87,0,1.74-0.25,2.59-0.77C8.8,10.42,9.52,8.83,9.28,6.76z M7.09,7.43c0,0.69-0.24,1.33-0.69,1.78
		C5.95,9.66,5.34,9.9,4.66,9.9c0,0,0,0,0,0c-1.45,0-2.42-0.98-2.43-2.45c0-0.7,0.24-1.33,0.68-1.78c0.44-0.45,1.05-0.7,1.73-0.7
		c0,0,0,0,0.01,0C6.05,4.97,7.08,6,7.09,7.43z"/>
</g>
<g>
	<g>
		<rect x="81.08" y="3.21" class="st0" width="2.27" height="8.93"/>
		<path class="st0" d="M82.23,2.61c0.73,0,1.27-0.56,1.27-1.29c0-0.36-0.13-0.68-0.37-0.92c-0.23-0.23-0.56-0.36-0.92-0.36
			c-0.36,0-0.68,0.14-0.92,0.38c-0.24,0.24-0.36,0.57-0.36,0.91C80.94,2.06,81.5,2.61,82.23,2.61z"/>
	</g>
	<path class="st0" d="M60.3,7.5c0.03-1.51-0.56-2.83-1.68-3.71c-1.18-0.93-2.76-1.22-4.32-0.81c-2.45,0.65-3.84,3.06-3.24,5.61
		c0.51,2.16,2.26,3.55,4.29,3.55c0.33,0,0.67-0.04,1.01-0.12c0.69-0.16,1.3-0.5,1.86-1.05v0.92h2.08v-0.3c0-0.44,0-0.87,0-1.31
		C60.29,9.33,60.28,8.42,60.3,7.5z M58.04,7.47c0,1.45-1,2.47-2.42,2.47c0,0,0,0,0,0c-0.67,0-1.28-0.24-1.72-0.68
		c-0.45-0.45-0.7-1.09-0.7-1.79c0-0.71,0.25-1.34,0.7-1.8c0.44-0.44,1.05-0.68,1.72-0.68c0,0,0,0,0,0C57.02,5,58.04,6.04,58.04,7.47
		z"/>
	<path class="st0" d="M70.32,6.76c-0.27-2.36-2.1-3.98-4.49-3.98c-0.03,0-0.07,0-0.1,0c-0.93,0.02-1.75,0.34-2.49,0.97V0.05h-2.12
		l-0.06,0.32c-0.01,0.07-0.02,0.13-0.02,0.19c0,0.89,0,1.64-0.01,2.34c-0.01,1.66-0.01,2.98,0.03,5.05c0.03,1.4,0.7,2.59,1.91,3.35
		c0.88,0.55,1.79,0.83,2.7,0.83c0.87,0,1.74-0.25,2.59-0.77C69.84,10.42,70.55,8.83,70.32,6.76z M68.12,7.43
		c0,0.69-0.24,1.33-0.69,1.78C66.99,9.66,66.37,9.9,65.7,9.9c0,0,0,0,0,0c-1.45,0-2.42-0.98-2.43-2.45c0-0.7,0.24-1.33,0.68-1.78
		c0.44-0.45,1.05-0.7,1.73-0.7c0,0,0,0,0.01,0C67.09,4.97,68.11,6,68.12,7.43z"/>
	<path class="st0" d="M80.15,6.76c-0.27-2.36-2.1-3.98-4.49-3.98c-0.03,0-0.07,0-0.1,0c-0.93,0.02-1.75,0.34-2.49,0.97V0.05h-2.12
		L70.9,0.37c-0.01,0.07-0.02,0.13-0.02,0.19c0,0.89,0,1.65-0.01,2.35c-0.01,1.66-0.01,2.97,0.03,5.04c0.03,1.4,0.7,2.59,1.91,3.35
		c0.88,0.55,1.79,0.83,2.7,0.83c0.87,0,1.74-0.25,2.59-0.77C79.67,10.42,80.38,8.83,80.15,6.76z M77.95,7.43
		c0,0.69-0.24,1.33-0.69,1.78C76.82,9.66,76.2,9.9,75.53,9.9c0,0,0,0,0,0c-1.45,0-2.42-0.98-2.43-2.45c0-0.7,0.24-1.33,0.68-1.78
		c0.44-0.45,1.05-0.7,1.73-0.7c0,0,0,0,0.01,0C76.92,4.97,77.94,6,77.95,7.43z"/>
	<path class="st0" d="M89.55,9.65c-0.21,0-0.42,0-0.62,0h-0.06c-0.41,0-0.81,0-1.21,0c-0.87-0.02-0.89-0.57-0.9-0.76
		c-0.04-0.94-0.03-1.87-0.02-2.85l0-0.09c0-0.24,0-0.48,0.01-0.72h3.24V2.87h-3.25V0h-2.48l0,1.01c0,0.31,0,0.62,0,0.93V4.8l0,1.69
		c0,0.84,0,1.69,0.01,2.53c0.02,1.33,0.75,2.45,1.87,2.85c0.52,0.18,1.07,0.27,1.7,0.27c0.61,0,1.24-0.08,1.79-0.16L90,11.92V9.65
		H89.55z"/>
	<path class="st0" d="M50.43,2.9h-0.41c-0.01,0-0.02,0-0.03,0c-1.15,0-2.04,0.22-2.79,0.7c-1.24,0.79-1.89,2.01-1.93,3.63
		c-0.03,0.99-0.02,1.99-0.01,2.95c0,0.41,0.01,0.82,0.01,1.24c0,0.07,0,0.14,0.01,0.21l0.03,0.51h2.14l0-2.03
		c0-0.91,0-1.83,0.01-2.74c0.01-1.23,0.88-2.16,2.11-2.27c0.25-0.02,0.5-0.03,0.76-0.04c0.12,0,0.24-0.01,0.36-0.02l0.42-0.02V2.9
		H50.43z"/>
</g>
</svg>
